<?xml version="1.0" standalone="no"?>
<!DOCTYPE svg PUBLIC "-//W3C//DTD SVG 20010904//EN"
 "http://www.w3.org/TR/2001/REC-SVG-20010904/DTD/svg10.dtd">
<svg version="1.0" xmlns="http://www.w3.org/2000/svg"
 width="200.000000pt" height="200.000000pt" viewBox="0 0 200.000000 200.000000"
 preserveAspectRatio="xMidYMid meet">
<metadata>
Created by potrace 1.11, written by Peter Selinger 2001-2013
</metadata>
<g transform="translate(0.000000,200.000000) scale(0.100000,-0.100000)"
fill="#000000" stroke="none">
<path d="M958 1981 c-10 -14 -30 -21 -69 -25 -80 -8 -204 -43 -284 -80 -74
-34 -204 -116 -225 -141 -7 -8 -25 -15 -41 -15 -34 0 -59 -23 -59 -55 0 -13
-23 -54 -52 -92 -93 -122 -167 -309 -183 -459 -4 -35 -13 -62 -26 -75 -24 -24
-24 -54 0 -78 11 -11 22 -40 25 -68 20 -172 84 -333 186 -467 27 -37 50 -78
50 -91 0 -30 25 -55 53 -55 13 0 49 -20 82 -45 126 -95 313 -172 460 -190 33
-4 71 -16 84 -26 30 -24 56 -24 80 0 11 11 41 21 76 26 87 10 104 14 183 41
100 33 198 84 275 142 40 31 75 50 91 50 30 0 55 26 56 59 0 12 23 53 52 90
92 121 169 316 183 461 4 34 13 60 25 72 25 25 25 55 1 79 -13 13 -22 41 -27
78 -17 154 -89 333 -182 456 -29 38 -52 79 -52 92 0 30 -25 55 -55 55 -13 0
-54 23 -91 50 -124 94 -300 167 -449 185 -33 4 -71 16 -84 26 -31 24 -66 24
-83 0z m11 -88 c30 -17 32 -17 62 0 40 22 78 22 175 -3 98 -25 171 -54 249
-98 96 -56 142 -97 149 -135 6 -33 46 -64 66 -52 15 9 86 -85 133 -174 81
-154 130 -360 93 -390 -20 -17 -21 -51 -1 -77 21 -27 18 -68 -10 -180 -46
-180 -172 -400 -223 -388 -25 6 -54 -21 -58 -51 -3 -35 -24 -57 -103 -109 -87
-56 -218 -111 -313 -130 -98 -20 -119 -20 -157 1 -29 17 -32 17 -66 -1 -33
-18 -42 -19 -111 -7 -142 24 -285 83 -395 164 -46 34 -58 49 -63 78 -6 35 -34
59 -71 59 -36 0 -152 191 -193 317 -11 34 -26 95 -33 137 -12 69 -11 78 6 110
19 35 19 37 1 70 -13 25 -17 47 -13 78 18 141 72 283 157 408 43 63 59 78 86
83 36 5 55 23 57 53 1 21 14 39 47 65 55 43 133 90 180 109 19 7 40 17 45 21
11 7 143 45 185 52 55 9 90 6 119 -10z"/>
<path d="M961 1691 c-11 -11 -41 -22 -68 -26 -62 -8 -171 -46 -226 -79 -349
-204 -446 -654 -213 -980 98 -137 250 -235 416 -267 36 -7 76 -20 89 -31 30
-23 52 -23 82 0 13 11 53 24 89 31 344 67 583 399 538 746 -19 143 -85 278
-185 382 -64 66 -90 85 -175 132 -52 27 -189 71 -226 71 -8 0 -25 9 -39 20
-32 25 -58 25 -82 1z m8 -88 c29 -17 32 -17 65 1 38 20 81 17 174 -15 253 -87
431 -350 416 -617 -14 -252 -188 -487 -417 -561 -102 -33 -134 -36 -173 -15
-33 18 -35 18 -68 0 -42 -22 -88 -16 -196 25 -313 121 -472 475 -356 794 35
96 73 154 151 230 78 77 184 138 277 160 73 18 92 18 127 -2z"/>
<path d="M943 1319 c-98 -18 -186 -88 -228 -181 -23 -51 -28 -77 -29 -143 0
-70 4 -89 29 -139 34 -67 98 -129 163 -159 35 -16 66 -22 122 -21 66 0 83 4
138 34 63 34 113 84 148 150 15 28 19 56 19 135 0 85 -4 107 -24 148 -63 129
-200 200 -338 176z"/>
</g>
</svg>
